name analog
datacolumns 19
datarows 51
range 0.4555 0.4805
endheader
time	ground_force_vx	ground_force_vy	ground_force_vz	ground_force_px	ground_force_py	ground_force_pz	l_ground_force_vx	l_ground_force_vy	l_ground_force_vz	l_ground_force_px	l_ground_force_py	l_ground_force_pz	ground_torque_x	ground_torque_y	ground_torque_z	l_ground_torque_x	l_ground_torque_y	l_ground_torque_z
0.4555	-0.0	-0.0	-0.0	-0.0	-0.0	-0.0	9.679800987243652	-11.962448120117188	-790.3572998046875	-0.0	-0.0	-0.0	-0.0	-0.0	-0.0	218082.25	-17420.50390625	1645.0208740234375
0.456	-0.0	-0.0	-0.0	-0.0	-0.0	-0.0	9.058675765991213	-10.087505340576172	-792.4596557617188	-0.0	-0.0	-0.0	-0.0	-0.0	-0.0	219044.0	-17376.96875	1309.0980224609375
0.4565	-0.0	-0.0	-0.0	-0.0	-0.0	-0.0	8.81163501739502	-7.889768600463867	-795.3277587890625	-0.0	-0.0	-0.0	-0.0	-0.0	-0.0	220325.1875	-17163.017578125	1092.0457763671875
0.457	-0.0	-0.0	-0.0	-0.0	-0.0	-0.0	8.782367706298828	-5.505207061767578	-798.6275634765625	-0.0	-0.0	-0.0	-0.0	-0.0	-0.0	221941.96875	-17525.970703125	980.4251098632812
0.4575	-0.0	-0.0	-0.0	-0.0	-0.0	-0.0	8.358604431152344	-3.5230846405029297	-800.294189453125	-0.0	-0.0	-0.0	-0.0	-0.0	-0.0	223300.40625	-17633.009765625	914.7778930664062
0.458	-0.0	-0.0	-0.0	-0.0	-0.0	-0.0	9.018709182739258	-1.658778429031372	-803.2041625976562	-0.0	-0.0	-0.0	-0.0	-0.0	-0.0	224644.71875	-17673.34765625	843.079345703125
0.4585	-0.0	-0.0	-0.0	-0.0	-0.0	-0.0	9.205631256103516	0.1468581408262252	-805.29931640625	-0.0	-0.0	-0.0	-0.0	-0.0	-0.0	225698.1875	-17881.91796875	896.5055541992188
0.459	-0.0	-0.0	-0.0	-0.0	-0.0	-0.0	9.07692813873291	0.943235158920288	-806.3469848632812	-0.0	-0.0	-0.0	-0.0	-0.0	-0.0	226703.125	-17727.654296875	880.1998901367188
0.4595	-0.0	-0.0	-0.0	-0.0	-0.0	-0.0	8.938915252685547	1.4432806968688965	-806.6593017578125	-0.0	-0.0	-0.0	-0.0	-0.0	-0.0	227474.84375	-17689.41015625	765.42578125
0.46	-0.0	-0.0	-0.0	-0.0	-0.0	-0.0	9.501296997070312	1.7084697484970093	-806.1910400390625	-0.0	-0.0	-0.0	-0.0	-0.0	-0.0	228185.828125	-17477.75390625	715.1134643554688
0.4605	-0.0	-0.0	-0.0	-0.0	-0.0	-0.0	9.718393325805664	2.009951591491699	-805.913818359375	-0.0	-0.0	-0.0	-0.0	-0.0	-0.0	228228.0	-17401.6640625	610.9578857421875
0.461	-0.0	-0.0	-0.0	-0.0	-0.0	-0.0	9.247672080993652	2.883958339691162	-806.1055297851562	-0.0	-0.0	-0.0	-0.0	-0.0	-0.0	229279.09375	-17375.455078125	527.9419555664062
0.4615	-0.0	-0.0	-0.0	-0.0	-0.0	-0.0	8.822277069091797	4.82681131362915	-808.9321899414062	-0.0	-0.0	-0.0	-0.0	-0.0	-0.0	231008.671875	-17694.951171875	350.12359619140625
0.462	-0.0	-0.0	-0.0	-0.0	-0.0	-0.0	8.7471342086792	7.467567443847656	-814.6054077148438	-0.0	-0.0	-0.0	-0.0	-0.0	-0.0	233114.265625	-18087.490234375	324.00830078125
0.4625	-0.0	-0.0	-0.0	-0.0	-0.0	-0.0	9.84689712524414	9.644369125366213	-817.4530029296875	-0.0	-0.0	-0.0	-0.0	-0.0	-0.0	234781.765625	-18668.259765625	638.2098999023438
0.463	-0.0	-0.0	-0.0	-0.0	-0.0	-0.0	10.8798828125	11.097126960754396	-821.20458984375	-0.0	-0.0	-0.0	-0.0	-0.0	-0.0	235856.0625	-19296.708984375	940.689697265625
0.4635	-0.0	-0.0	-0.0	-0.0	-0.0	-0.0	10.879756927490234	12.983287811279297	-823.3660888671875	-0.0	-0.0	-0.0	-0.0	-0.0	-0.0	236730.890625	-19793.3203125	976.5307006835938
0.464	-0.0	-0.0	-0.0	-0.0	-0.0	-0.0	10.508074760437012	13.769911766052246	-824.5051879882812	-0.0	-0.0	-0.0	-0.0	-0.0	-0.0	237558.921875	-20284.21484375	679.8007202148438
0.4645	-0.0	-0.0	-0.0	-0.0	-0.0	-0.0	10.57303237915039	14.268046379089355	-826.6002807617188	-0.0	-0.0	-0.0	-0.0	-0.0	-0.0	238697.265625	-20687.130859375	758.244873046875
0.465	-0.0	-0.0	-0.0	-0.0	-0.0	-0.0	10.362947463989258	14.605132102966309	-828.9178466796875	-0.0	-0.0	-0.0	-0.0	-0.0	-0.0	239526.234375	-20793.0078125	909.0557250976562
0.4655	-0.0	-0.0	-0.0	-0.0	-0.0	-0.0	10.459915161132812	14.71744441986084	-830.75927734375	-0.0	-0.0	-0.0	-0.0	-0.0	-0.0	240637.640625	-21056.876953125	766.2799072265625
0.466	-0.0	-0.0	-0.0	-0.0	-0.0	-0.0	10.234285354614258	14.982284545898438	-833.7740478515625	-0.0	-0.0	-0.0	-0.0	-0.0	-0.0	241440.796875	-21243.078125	634.0289916992188
0.4665	-0.0	-0.0	-0.0	-0.0	-0.0	-0.0	10.637537956237791	14.910919189453123	-837.9638671875	-0.0	-0.0	-0.0	-0.0	-0.0	-0.0	242558.1875	-21214.58984375	707.1608276367188
0.467	-0.0	-0.0	-0.0	-0.0	-0.0	-0.0	10.830322265625	14.212218284606934	-841.6150512695312	-0.0	-0.0	-0.0	-0.0	-0.0	-0.0	243589.515625	-21149.869140625	741.8967895507812
0.4675	-0.0	-0.0	-0.0	-0.0	-0.0	-0.0	10.97757053375244	13.58656120300293	-844.9468994140625	-0.0	-0.0	-0.0	-0.0	-0.0	-0.0	244646.828125	-21480.021484375	796.0975952148438
0.468	-0.0	-0.0	-0.0	-0.0	-0.0	-0.0	10.822715759277344	12.799304008483888	-848.8895874023438	-0.0	-0.0	-0.0	-0.0	-0.0	-0.0	245642.09375	-21502.234375	850.2101440429688
0.4685	-0.0	-0.0	-0.0	-0.0	-0.0	-0.0	10.10577392578125	11.806209564208984	-852.702880859375	-0.0	-0.0	-0.0	-0.0	-0.0	-0.0	246335.0	-21392.982421875	614.6593627929688
0.46900000000000003	-0.0	-0.0	-0.0	-0.0	-0.0	-0.0	8.94544506072998	10.517420768737791	-854.5909423828125	-0.0	-0.0	-0.0	-0.0	-0.0	-0.0	247387.140625	-21466.015625	467.6269226074219
0.46950000000000003	-0.0	-0.0	-0.0	-0.0	-0.0	-0.0	7.751660823822021	9.667729377746582	-857.2501220703125	-0.0	-0.0	-0.0	-0.0	-0.0	-0.0	247659.34375	-21602.19921875	322.9631042480469
0.47000000000000003	-0.0	-0.0	-0.0	-0.0	-0.0	-0.0	6.871616363525391	9.157821655273438	-856.763427734375	-0.0	-0.0	-0.0	-0.0	-0.0	-0.0	247733.28125	-21677.822265625	182.87710571289065
0.47050000000000003	-0.0	-0.0	-0.0	-0.0	-0.0	-0.0	5.766201019287109	7.93536901473999	-858.7249755859375	-0.0	-0.0	-0.0	-0.0	-0.0	-0.0	247787.046875	-21716.150390625	-249.44927978515625
0.47100000000000003	-0.0	-0.0	-0.0	-0.0	-0.0	-0.0	4.407862186431885	7.052450656890869	-858.939208984375	-0.0	-0.0	-0.0	-0.0	-0.0	-0.0	247769.59375	-21930.025390625	-506.054931640625
0.47150000000000003	-0.0	-0.0	-0.0	-0.0	-0.0	-0.0	4.087283134460449	7.371581554412842	-861.2213134765625	-0.0	-0.0	-0.0	-0.0	-0.0	-0.0	248490.5	-21683.29296875	-641.2216186523438
0.47200000000000003	-0.0	-0.0	-0.0	-0.0	-0.0	-0.0	4.128270149230957	7.595664978027344	-863.2393798828125	-0.0	-0.0	-0.0	-0.0	-0.0	-0.0	249337.859375	-21921.79296875	-741.0407104492188
0.47250000000000003	-0.0	-0.0	-0.0	-0.0	-0.0	-0.0	4.78406286239624	8.03098201751709	-865.7836303710938	-0.0	-0.0	-0.0	-0.0	-0.0	-0.0	250386.078125	-22117.53515625	-514.7349853515625
0.47300000000000003	-0.0	-0.0	-0.0	-0.0	-0.0	-0.0	6.044805526733398	7.990008354187012	-869.249755859375	-0.0	-0.0	-0.0	-0.0	-0.0	-0.0	251310.28125	-22055.091796875	-195.06398010253903
0.47350000000000003	-0.0	-0.0	-0.0	-0.0	-0.0	-0.0	6.6946210861206055	7.825558185577393	-872.439208984375	-0.0	-0.0	-0.0	-0.0	-0.0	-0.0	252188.8125	-21979.041015625	-159.4559783935547
0.47400000000000003	-0.0	-0.0	-0.0	-0.0	-0.0	-0.0	6.706617832183838	7.248321056365967	-876.044921875	-0.0	-0.0	-0.0	-0.0	-0.0	-0.0	253103.171875	-22062.763671875	-189.1993560791016
0.47450000000000003	-0.0	-0.0	-0.0	-0.0	-0.0	-0.0	6.694721221923828	7.813539028167725	-878.62841796875	-0.0	-0.0	-0.0	-0.0	-0.0	-0.0	253764.6875	-22109.24609375	-319.5585021972656
0.47500000000000003	-0.0	-0.0	-0.0	-0.0	-0.0	-0.0	6.500167369842529	8.54302978515625	-880.8643188476562	-0.0	-0.0	-0.0	-0.0	-0.0	-0.0	254852.515625	-21840.341796875	-481.7048034667969
0.47550000000000003	-0.0	-0.0	-0.0	-0.0	-0.0	-0.0	6.173877239227295	9.050159454345703	-883.7027587890625	-0.0	-0.0	-0.0	-0.0	-0.0	-0.0	255306.84375	-21861.396484375	-726.6940307617188
0.47600000000000003	-0.0	-0.0	-0.0	-0.0	-0.0	-0.0	5.630383968353272	8.796224594116211	-883.6593627929688	-0.0	-0.0	-0.0	-0.0	-0.0	-0.0	255465.4375	-21720.501953125	-711.2177124023438
0.47650000000000003	-0.0	-0.0	-0.0	-0.0	-0.0	-0.0	5.766201019287109	8.925885200500488	-881.9356689453125	-0.0	-0.0	-0.0	-0.0	-0.0	-0.0	255048.8125	-21470.001953125	-804.86328125
0.47700000000000004	-0.0	-0.0	-0.0	-0.0	-0.0	-0.0	5.275641441345215	9.13865566253662	-881.813720703125	-0.0	-0.0	-0.0	-0.0	-0.0	-0.0	254590.828125	-21380.927734375	-1084.640625
0.47750000000000004	-0.0	-0.0	-0.0	-0.0	-0.0	-0.0	4.560879230499268	9.143858909606934	-880.2315063476562	-0.0	-0.0	-0.0	-0.0	-0.0	-0.0	254107.96875	-20904.20703125	-1348.45361328125
0.47800000000000004	-0.0	-0.0	-0.0	-0.0	-0.0	-0.0	3.647276401519776	8.618931770324707	-878.8544921875	-0.0	-0.0	-0.0	-0.0	-0.0	-0.0	253615.640625	-20229.5546875	-1480.1131591796875
0.47850000000000004	-0.0	-0.0	-0.0	-0.0	-0.0	-0.0	3.454770565032959	8.213916778564453	-876.884521484375	-0.0	-0.0	-0.0	-0.0	-0.0	-0.0	252782.234375	-19768.75390625	-1508.32275390625
0.47900000000000004	-0.0	-0.0	-0.0	-0.0	-0.0	-0.0	2.853145122528076	8.400117874145508	-874.808837890625	-0.0	-0.0	-0.0	-0.0	-0.0	-0.0	252020.234375	-19291.689453125	-1628.9644775390625
0.47950000000000004	-0.0	-0.0	-0.0	-0.0	-0.0	-0.0	2.292332649230957	8.390560150146484	-874.4780883789062	-0.0	-0.0	-0.0	-0.0	-0.0	-0.0	251617.296875	-18557.1015625	-1763.6142578125
0.48	-0.0	-0.0	-0.0	-0.0	-0.0	-0.0	1.3306617736816406	8.432448387145996	-875.1575317382812	-0.0	-0.0	-0.0	-0.0	-0.0	-0.0	251684.875	-18199.90625	-2074.92138671875
0.4805	-0.0	-0.0	-0.0	-0.0	-0.0	-0.0	-0.0044494271278381	7.9864678382873535	-876.8855590820312	-0.0	-0.0	-0.0	-0.0	-0.0	-0.0	252276.78125	-17758.57421875	-2419.3134765625
